<?xml version="1.0" encoding="iso-8859-1"?>
<!-- Generator: Adobe Illustrator 16.0.0, SVG Export Plug-In . SVG Version: 6.00 Build 0)  -->
<!DOCTYPE svg PUBLIC "-//W3C//DTD SVG 1.1//EN" "http://www.w3.org/Graphics/SVG/1.1/DTD/svg11.dtd">
<svg version="1.1" id="Capa_1" xmlns="http://www.w3.org/2000/svg" xmlns:xlink="http://www.w3.org/1999/xlink" x="0px" y="0px"
	 width="937.5px" height="937.5px" viewBox="0 0 937.5 937.5" style="enable-background:new 0 0 937.5 937.5;" xml:space="preserve"
	>
<g>
	<g>
		<path d="M256.12,117.4c-18.9-4.3-37.6,7.5-41.9,26.4l-30,132.1c-2.5,11.1,0.5,22.7,8.1,31.2c6.7,7.4,16.1,11.6,26,11.6
			c1.4,0,2.8-0.1,4.2-0.2l89.5-10.7c7.601-3.1,14.5-6.7,20.9-10.6c4-2.5,7.8-5.2,11.3-8.1c3.9-3.2,7.9-6.6,11.8-9.8
			c12-10.1,24.301-20.5,38.4-28.6c15.7-9,31.4-13.7,47.8-14.3c3.101-0.1,6.2-0.1,9.2,0.1c11.3,0.6,22.6,2.8,33.5,6.4
			c5.6,1.9,11.1,4.1,16.5,6.6c0.3,0.1,0.5,0.3,0.8,0.4c-18.5-16.1-42.701-25.8-69.1-25.8c-16.8,0-169.7,18.8-169.7,18.8l19-83.7
			C286.72,140.4,274.92,121.6,256.12,117.4z"/>
		<path d="M622.52,682.5l-79.199-219.2c-11.801,10-25.101,17.9-37.9,25.601c-4.3,2.6-8.8,5.3-13.1,7.899
			c-17.2,10.7-32.5,26.9-46.901,49.601c-17.5,27.5-38.1,49.699-61.2,66c-24.2,17-52.2,26-81.1,26c-14.101,0-28.3-2.101-42.2-6.301
			l-17,50.4c-2.9,7.8,2.9,16.2,11.3,16.2h72.601v191.8c0,26,21.1,47,47,47c26,0,47-21.1,47-47V698.7h22.699v191.8
			c0,26,21.101,47,47,47c26,0,47-21.1,47-47V698.7h72.601C619.621,698.7,625.42,690.3,622.52,682.5z"/>
		<path d="M775.72,194.5c2.4-1.7,3.601-4.8,2.9-7.7l-17.7-72.6c-0.7-2.8-3.2-4.6-5.8-4.6c-1.2,0-2.4,0.4-3.5,1.1l-78.4,55.9
			c-10.7,7.6-16.7,19.5-17.2,31.7l-114.6,81.6l-11.2,8l-2.399,1.7c-19.601-19.3-46-32.5-73.5-34.9c-2.801-0.2-5.601-0.4-8.301-0.4
			c-37.6,0-61.899,25.5-89.5,48c-0.3,0.2-0.5,0.4-0.8,0.6c-8.399,6.8-17.6,12.4-27.399,17.1c-13.4,6.4-27.601,11.1-42,14.5
			c-27,6.4-53.5,17.1-76,33.4c-62.6,45.199-65.8,129.399-23,189.5c20.1,28.3,48.7,48.6,79.8,57.699c11.7,3.4,23.8,5.2,36,5.2
			c24.2,0,48.6-7.1,70.8-22.7c22.8-16,41.5-37.5,56.4-60.899c13.699-21.5,30.699-41.601,52.6-55.2c19.8-12.3,40.4-22.8,55.9-38.4
			c9.3-9.399,16.8-20.699,21-35.5c2.1-7.399,3.399-14.899,3.899-22.6c1.3-18-1.7-36.4-8.1-53.2l27.899-19.9l38.2-27.2l14-34.2
			c8.5-20.8,28.5-34.2,50.9-34.2c7.2,0,14.2,1.4,20.8,4.1c6.4,2.6,12,6.3,16.7,10.7L775.72,194.5z M414.82,469.9
			c-10.7,7.6-23,11.3-35.2,11.3c-19,0-37.7-8.9-49.5-25.5c-0.9-1.3-1.8-2.7-2.601-4.101c-11.899-19.8-11.199-44.199,0.4-63.1
			c4.1-6.7,9.7-12.8,16.5-17.6c10.7-7.601,23-11.3,35.2-11.3c19,0,37.7,8.9,49.5,25.5C448.52,412.5,442.12,450.5,414.82,469.9z"/>
		<path d="M624.02,429c6.301,2.2,13.101,2.6,19.601,1c10.7-2.6,20-10.5,24.2-20.7l51-124.5c4-9.9,3.199-20.5-1.301-29.3
			c-1.399-2.8-3.199-5.4-5.3-7.7c-10.3-11.2-27.3-14.5-41-7.8c-10,4.8-15.1,13.3-19.2,23.1L607.42,372c-7.1-13.2-8.7-29.2-3.4-44.2
			l-5.699-4.4l-21.601,15.4c5.4,19.5,6.601,39.7,3.5,58.9c5.4,4.2,28,21.5,33.8,25.899C617.121,426,620.52,427.8,624.02,429z"/>
		<path d="M556.52,191c-8.699-4.7-27.8-18.2-27.8-46c0-36,9-145-95.5-145c-104.5,0-95.5,109-95.5,145c0,27.8-19.1,41.3-27.8,46
			c-2.6,1.4-3.8,4.4-2.9,7.1c5.801,18.6,20.4,24.3,36.101,24.3c24.1,0,50.6-13.4,50.6-13.4c-12.5-7.3-18.899-21.8-22-36.4
			c13.101,21.7,35.8,36,61.5,36s48.401-14.3,61.5-36c-3.1,14.7-9.5,29.1-22,36.4c0,0,26.5,13.4,50.601,13.4
			c15.6,0,30.3-5.6,36.1-24.3C560.321,195.4,559.121,192.4,556.52,191z"/>
	</g>
</g>
<g>
</g>
<g>
</g>
<g>
</g>
<g>
</g>
<g>
</g>
<g>
</g>
<g>
</g>
<g>
</g>
<g>
</g>
<g>
</g>
<g>
</g>
<g>
</g>
<g>
</g>
<g>
</g>
<g>
</g>
</svg>
